<svg width="16" height="16" viewBox="0 0 16 16" fill="none" xmlns="http://www.w3.org/2000/svg">
<mask id="mask0_1_20" style="mask-type:alpha" maskUnits="userSpaceOnUse" x="0" y="0" width="16" height="16">
<rect width="16" height="16" rx="2" fill="white"/>
</mask>
<g mask="url(#mask0_1_20)">
<rect width="16" height="16" rx="2" fill="hsl(262, 88%, 16%)"/>
<path d="M12.6165 8.176C12.5765 8.048 12.4205 7.936 12.1485 7.84C11.8845 7.736 11.5365 7.684 11.1045 7.684C10.6325 7.684 10.2645 7.816 10.0005 8.08C9.73646 8.344 9.60446 8.676 9.60446 9.076C9.60446 9.324 9.69246 9.516 9.86846 9.652C10.0525 9.78 10.3325 9.924 10.7085 10.084L11.1405 10.264L11.5005 10.432C11.9325 10.624 12.2725 10.8 12.5205 10.96C12.7765 11.112 12.9925 11.324 13.1685 11.596C13.3445 11.868 13.4325 12.216 13.4325 12.64C13.4325 13.096 13.2805 13.492 12.9765 13.828C12.6805 14.156 12.2645 14.404 11.7285 14.572C11.1925 14.748 10.5685 14.836 9.85646 14.836C9.32846 14.836 8.83246 14.752 8.36846 14.584C7.91246 14.424 7.54846 14.22 7.27646 13.972C7.01246 13.724 6.88046 13.48 6.88046 13.24C6.88046 13.008 6.98046 12.82 7.18046 12.676C7.38046 12.524 7.66446 12.42 8.03246 12.364C8.07246 12.596 8.20846 12.804 8.44046 12.988C8.67246 13.172 8.94046 13.32 9.24446 13.432C9.55646 13.536 9.82846 13.588 10.0605 13.588C10.4845 13.588 10.8605 13.504 11.1885 13.336C11.5245 13.168 11.6925 12.936 11.6925 12.64C11.6925 12.392 11.5725 12.188 11.3325 12.028C11.1005 11.86 10.7485 11.68 10.2765 11.488L9.64046 11.2C9.12046 10.944 8.70846 10.656 8.40446 10.336C8.10046 10.016 7.94846 9.592 7.94846 9.064C7.94846 8.48 8.11246 8.008 8.44046 7.648C8.76846 7.28 9.16446 7.016 9.62846 6.856C10.1005 6.696 10.5605 6.616 11.0085 6.616C11.7205 6.616 12.3045 6.708 12.7605 6.892C13.2245 7.076 13.5605 7.308 13.7685 7.588C13.9765 7.868 14.0805 8.156 14.0805 8.452C14.0805 8.62 14.0365 8.824 13.9485 9.064C13.8685 9.304 13.7445 9.512 13.5765 9.688C13.4165 9.864 13.2205 9.952 12.9885 9.952C12.5885 9.952 12.3885 9.744 12.3885 9.328C12.4045 9.2 12.4405 8.992 12.4965 8.704C12.5525 8.408 12.5925 8.232 12.6165 8.176Z" fill="white"/>
<path d="M8.19531 11.6396C8.44416 11.8697 8.74723 12.0837 9.10547 12.2812C8.71602 12.2535 8.45169 12.1334 8.3125 11.9199C8.26584 11.8432 8.22739 11.7497 8.19531 11.6396ZM9.57617 1.36035C9.9175 1.36035 10.1741 1.39205 10.3447 1.45605C10.5151 1.52 10.6214 1.6054 10.6641 1.71191C10.7174 1.81858 10.7441 1.96816 10.7441 2.16016C10.7015 2.48 10.6747 2.71992 10.6641 2.87988C10.5041 4.17054 10.3822 5.28001 10.2969 6.20801C10.2616 6.64193 10.2344 7.07585 10.2158 7.50977C9.93684 7.55244 9.65339 7.6214 9.36621 7.71875C8.91388 7.87475 8.5215 8.12247 8.18848 8.46094C6.82692 8.69053 5.73771 8.89941 4.9209 9.08789C4.6649 9.49322 4.49947 9.76563 4.4248 9.9043C4.20082 10.2989 3.99773 10.6298 3.81641 10.8965C3.64586 11.1523 3.45933 11.3815 3.25684 11.584C3.03284 11.808 2.84562 11.9685 2.69629 12.0645C2.55769 12.1603 2.39204 12.208 2.2002 12.208C1.88033 12.208 1.59779 12.1386 1.35254 12C1.11787 11.8507 1 11.7011 1 11.5518C1.02133 11.5304 1.13921 11.2957 1.35254 10.8477C1.56591 10.389 1.96027 9.81825 2.53613 9.13574C2.53608 9.0505 2.50928 8.94419 2.45605 8.81641C2.40272 8.68841 2.37598 8.61313 2.37598 8.5918C2.37619 8.28253 2.86173 7.90887 3.83203 7.47168C4.37603 6.66102 4.94759 5.86159 5.54492 5.07227C6.15287 4.283 6.89399 3.34967 7.76855 2.27246C7.98179 2.00592 8.25353 1.78684 8.58398 1.61621C8.91455 1.44559 9.2456 1.3604 9.57617 1.36035ZM10.1846 8.95996C10.1846 9.73208 10.2176 10.4459 10.2803 11.1016C9.99969 10.9728 9.78091 10.8558 9.62598 10.748C9.4355 10.6007 9.34083 10.3925 9.34082 10.124C9.34082 9.69069 9.48353 9.33092 9.76953 9.04492C9.8888 8.92567 10.0281 8.83221 10.1865 8.7627C10.1861 8.82845 10.1846 8.8942 10.1846 8.95996ZM8.68066 3.71191C8.26467 4.20258 7.43256 5.38139 6.18457 7.24805C6.37657 7.20539 6.66985 7.15684 7.06445 7.10352L8.34473 6.91211C8.44073 5.42944 8.55266 4.36258 8.68066 3.71191Z" fill="white"/>
</g>
</svg>
